<svg width="120" height="118" viewBox="0 0 120 118" fill="none" xmlns="http://www.w3.org/2000/svg">
<rect width="120" height="118" rx="29" fill="#1E1E1E"/>
<path d="M80.4454 30.6179C74.925 27.0062 67.7537 25.2188 60.5092 25.6487C53.2646 26.0787 46.5403 28.6909 41.8153 32.9107C37.0904 37.1305 34.752 42.6122 35.3145 48.1498C35.877 53.6875 39.2944 58.8276 44.8148 62.4393L62.6301 46.5286L80.4454 30.6179Z" fill="white"/>
<path d="M38.8148 87.4393C44.3352 91.051 51.5065 92.8385 58.751 92.4085C65.9956 91.9785 72.7199 89.3663 77.4449 85.1466C82.1698 80.9268 84.5082 75.4451 83.9457 69.9074C83.3832 64.3697 79.9659 59.2296 74.4454 55.6179L56.6301 71.5286L38.8148 87.4393Z" fill="white"/>
<path d="M33 80.0779L84.0293 34" stroke="#12BF65" stroke-width="2" stroke-linecap="round"/>
<path d="M35.9707 83L87 36.9221" stroke="#12BF65" stroke-width="2" stroke-linecap="round"/>
</svg>
